<svg width="9" height="16" viewBox="0 0 9 16" fill="none" xmlns="http://www.w3.org/2000/svg" strokeWidth="0">
<path fill-rule="evenodd" clip-rule="evenodd" d="M8.45662 8.96895C8.66812 8.75347 8.78693 8.46127 8.78693 8.15659C8.78693 7.85191 8.66812 7.5597 8.45662 7.34423L2.07476 0.844192C1.97069 0.734449 1.84621 0.646913 1.70857 0.586694C1.57093 0.526475 1.4229 0.494777 1.27311 0.493452C1.12331 0.492126 0.974762 0.521198 0.836119 0.578972C0.697474 0.636746 0.571515 0.722065 0.465591 0.82995C0.359668 0.937835 0.275901 1.06613 0.219176 1.20734C0.162453 1.34855 0.133909 1.49985 0.135211 1.65242C0.136513 1.80498 0.167634 1.95576 0.226758 2.09594C0.285883 2.23613 0.371826 2.36292 0.479575 2.46891L6.06385 8.15659L0.479575 13.8443C0.274076 14.061 0.160366 14.3512 0.162936 14.6525C0.165507 14.9538 0.284151 15.2419 0.493317 15.455C0.702482 15.668 0.985434 15.7889 1.28123 15.7915C1.57702 15.7941 1.86199 15.6783 2.07476 15.469L8.45662 8.96895Z" fill="#FBFBFB"/>
</svg>
