<svg width="11" height="7" viewBox="0 0 11 7" fill="none" xmlns="http://www.w3.org/2000/svg">
<path fill-rule="evenodd" clip-rule="evenodd" d="M6.07753 6.11842C5.93226 6.26364 5.73527 6.34521 5.52987 6.34521C5.32447 6.34521 5.12748 6.26364 4.98221 6.11842L0.600191 1.73639C0.526207 1.66494 0.467194 1.57946 0.426597 1.48495C0.386 1.39045 0.364631 1.2888 0.363738 1.18595C0.362844 1.0831 0.382443 0.981094 0.421392 0.885896C0.46034 0.790698 0.517858 0.70421 0.590589 0.631479C0.66332 0.558748 0.749808 0.50123 0.845006 0.462281C0.940204 0.423333 1.04221 0.403734 1.14506 0.404627C1.24791 0.405521 1.34956 0.42689 1.44406 0.467487C1.53857 0.508084 1.62405 0.567096 1.6955 0.64108L5.52987 4.47545L9.36424 0.64108C9.51033 0.499977 9.706 0.421899 9.90911 0.423664C10.1122 0.425429 10.3065 0.506895 10.4501 0.650516C10.5937 0.794137 10.6752 0.988421 10.677 1.19152C10.6787 1.39463 10.6007 1.5903 10.4596 1.73639L6.07753 6.11842Z" fill="#404040"/>
</svg>
