<svg width="10" height="16" viewBox="0 0 10 16" fill="none" xmlns="http://www.w3.org/2000/svg" strokeWidth="0">
<path fill-rule="evenodd" clip-rule="evenodd" d="M0.829121 9.19352C0.617603 8.98194 0.498779 8.69501 0.498779 8.39584C0.498779 8.09666 0.617603 7.80973 0.829121 7.59815L7.21173 1.21554C7.31581 1.10778 7.44031 1.02183 7.57796 0.962694C7.71562 0.903563 7.86367 0.872438 8.01348 0.871136C8.16329 0.869835 8.31186 0.898382 8.45052 0.955112C8.58918 1.01184 8.71515 1.09562 8.82109 1.20156C8.92702 1.30749 9.0108 1.43347 9.06753 1.57213C9.12426 1.71079 9.15281 1.85936 9.15151 2.00917C9.15021 2.15898 9.11908 2.30703 9.05995 2.44468C9.00082 2.58233 8.91487 2.70683 8.8071 2.81091L3.22218 8.39584L8.8071 13.9808C9.01263 14.1936 9.12635 14.4786 9.12378 14.7744C9.12121 15.0702 9.00255 15.3532 8.79336 15.5624C8.58417 15.7716 8.30119 15.8902 8.00536 15.8928C7.70953 15.8954 7.42453 15.7817 7.21173 15.5761L0.829121 9.19352Z" fill="currentColor"/>
</svg>
