<svg width="28" height="28" viewBox="0 0 28 28" fill="none" xmlns="http://www.w3.org/2000/svg">
<path d="M4.94032 2.47383L4.94048 2.47411C5.24537 3.03051 5.47288 3.68962 5.65763 4.31444L5.77251 4.70301L6.17645 4.67112C6.21419 4.66814 6.25202 4.66662 6.28988 4.66657C6.29 4.66657 6.29012 4.66657 6.29024 4.66657L25.3546 4.66657C26.2889 4.66657 26.964 5.56019 26.7074 6.4594L26.7074 6.45946L23.9189 16.236L23.9189 16.2361C23.6986 17.0084 23.2328 17.6881 22.5917 18.172C21.9508 18.6559 21.1696 18.9177 20.3664 18.9179C20.3664 18.9179 20.3663 18.9179 20.3663 18.9179H11.2931C10.4835 18.918 9.69639 18.6521 9.05262 18.1613C8.4089 17.6705 7.94416 16.9819 7.72983 16.2013C7.72982 16.2012 7.7298 16.2012 7.72979 16.2011L6.5705 11.9728L6.5706 11.9727L6.56765 11.9628L4.65728 5.5221L4.65637 5.51485L4.6468 5.48005L4.63501 5.4372C4.40616 4.60522 4.17071 3.74927 3.8102 3.09384C3.63376 2.76907 3.44869 2.5273 3.23595 2.36744C3.00496 2.19387 2.774 2.14113 2.56605 2.14113H1.71333C1.5425 2.14113 1.37868 2.07327 1.25789 1.95248C1.1371 1.83169 1.06924 1.66787 1.06924 1.49705C1.06924 1.32623 1.1371 1.1624 1.25789 1.04161C1.37868 0.920825 1.5425 0.852966 1.71333 0.852966H2.56452C3.74494 0.852966 4.4813 1.63487 4.94032 2.47383ZM7.82439 11.6774L7.82437 11.6774L7.82561 11.6819L8.97121 15.8601L8.97153 15.8613C9.26002 16.9037 10.2085 17.6298 11.2931 17.6298H20.3664C20.8896 17.6298 21.3985 17.4593 21.8161 17.1442C22.2337 16.8291 22.5373 16.3865 22.6808 15.8834L22.6808 15.8833L25.3305 6.59185L25.5122 5.95473H24.8497H6.80067H6.13102L6.32128 6.59679L7.80494 11.6038L7.82439 11.6774ZM13.0355 23.9973C13.0355 24.6738 12.7667 25.3227 12.2884 25.8011C11.81 26.2794 11.1612 26.5482 10.4846 26.5482C9.80808 26.5482 9.15925 26.2794 8.68087 25.8011C8.20248 25.3227 7.93373 24.6738 7.93373 23.9973C7.93373 23.3208 8.20248 22.6719 8.68087 22.1936C9.15925 21.7152 9.80808 21.4464 10.4846 21.4464C11.1611 21.4464 11.81 21.7152 12.2884 22.1936C12.7667 22.6719 13.0355 23.3208 13.0355 23.9973ZM11.7473 23.9973C11.7473 23.6624 11.6143 23.3412 11.3775 23.1044C11.1407 22.8676 10.8195 22.7346 10.4846 22.7346C10.1497 22.7346 9.82854 22.8676 9.59173 23.1044C9.35493 23.3412 9.22189 23.6624 9.22189 23.9973C9.22189 24.3322 9.35493 24.6534 9.59173 24.8902C9.82854 25.127 10.1497 25.26 10.4846 25.26C10.8195 25.26 11.1407 25.127 11.3775 24.8902C11.6143 24.6534 11.7473 24.3322 11.7473 23.9973ZM23.7136 23.9973C23.7136 24.6738 23.4448 25.3227 22.9665 25.8011C22.4881 26.2794 21.8392 26.5482 21.1627 26.5482C20.4862 26.5482 19.8373 26.2794 19.359 25.8011C18.8806 25.3227 18.6118 24.6738 18.6118 23.9973C18.6118 23.3208 18.8806 22.6719 19.359 22.1936C19.8373 21.7152 20.4862 21.4464 21.1627 21.4464C21.8392 21.4464 22.4881 21.7152 22.9665 22.1936C23.4448 22.6719 23.7136 23.3208 23.7136 23.9973ZM22.4254 23.9973C22.4254 23.6624 22.2924 23.3412 22.0556 23.1044C21.8188 22.8676 21.4976 22.7346 21.1627 22.7346C20.8278 22.7346 20.5066 22.8676 20.2698 23.1044C20.033 23.3412 19.9 23.6624 19.9 23.9973C19.9 24.3322 20.033 24.6534 20.2698 24.8902C20.5066 25.127 20.8278 25.26 21.1627 25.26C21.4976 25.26 21.8188 25.127 22.0556 24.8902C22.2924 24.6534 22.4254 24.3322 22.4254 23.9973Z" fill="#D6D8D9" stroke="#D6D8D9"/>
</svg>
