<svg width="19" height="16" viewBox="0 0 19 16" fill="none" xmlns="http://www.w3.org/2000/svg" strokeWidth="0">
<path d="M3.11496 0.724609C2.32618 0.724609 1.56971 1.04375 1.01196 1.61183C0.45421 2.17991 0.140869 2.95039 0.140869 3.75377V4.76349H18.6463V3.75377C18.6463 2.95039 18.333 2.17991 17.7752 1.61183C17.2175 1.04375 16.461 0.724609 15.6722 0.724609H3.11496ZM0.140869 12.5047V6.10978H18.6463V12.5047C18.6463 13.3081 18.333 14.0785 17.7752 14.6466C17.2175 15.2147 16.461 15.5338 15.6722 15.5338H3.11496C2.32618 15.5338 1.56971 15.2147 1.01196 14.6466C0.45421 14.0785 0.140869 13.3081 0.140869 12.5047ZM12.6981 10.1487C12.5229 10.1487 12.3548 10.2196 12.2308 10.3458C12.1069 10.4721 12.0372 10.6433 12.0372 10.8218C12.0372 11.0003 12.1069 11.1716 12.2308 11.2978C12.3548 11.424 12.5229 11.495 12.6981 11.495H14.6809C14.8562 11.495 15.0243 11.424 15.1482 11.2978C15.2721 11.1716 15.3418 11.0003 15.3418 10.8218C15.3418 10.6433 15.2721 10.4721 15.1482 10.3458C15.0243 10.2196 14.8562 10.1487 14.6809 10.1487H12.6981Z" fill="currentColor"/>
</svg>
