<svg width="29" height="25" viewBox="0 0 29 25" fill="none" xmlns="http://www.w3.org/2000/svg">
<path d="M20.9073 0.817291C18.4738 0.817291 16.3141 1.77529 14.8509 3.42189C13.3877 1.77529 11.228 0.817291 8.79457 0.817291C6.67511 0.819849 4.64319 1.66071 3.14451 3.15543C1.64582 4.65016 0.802735 6.6767 0.800171 8.79056C0.800171 17.5298 13.6166 24.5124 14.1617 24.806C14.3735 24.9197 14.6103 24.9793 14.8509 24.9793C15.0915 24.9793 15.3283 24.9197 15.5401 24.806C16.0852 24.5124 28.9017 17.5298 28.9017 8.79056C28.8991 6.6767 28.056 4.65016 26.5574 3.15543C25.0587 1.66071 23.0267 0.819849 20.9073 0.817291ZM20.2423 18.0154C18.5553 19.4431 16.752 20.7281 14.8509 21.8571C12.9499 20.7281 11.1465 19.4431 9.45956 18.0154C6.83473 15.7696 3.70722 12.3447 3.70722 8.79056C3.70722 7.44488 4.24321 6.15431 5.19727 5.20277C6.15133 4.25123 7.44532 3.71666 8.79457 3.71666C10.9506 3.71666 12.7554 4.85225 13.5052 6.68127C13.6143 6.9479 13.8006 7.17607 14.0403 7.33668C14.28 7.4973 14.5622 7.58307 14.8509 7.58307C15.1397 7.58307 15.4219 7.4973 15.6616 7.33668C15.9012 7.17607 16.0875 6.9479 16.1967 6.68127C16.9464 4.85225 18.7512 3.71666 20.9073 3.71666C22.2565 3.71666 23.5505 4.25123 24.5046 5.20277C25.4586 6.15431 25.9946 7.44488 25.9946 8.79056C25.9946 12.3447 22.8671 15.7696 20.2423 18.0154Z" fill="#4B4B4B"/>
</svg>
