<svg width="18" height="20" viewBox="0 0 18 20" fill="none" xmlns="http://www.w3.org/2000/svg">
<path d="M5.07812 7.9873H3.07812C2.54769 7.9873 2.03898 8.19802 1.66391 8.57309C1.28884 8.94816 1.07813 9.45687 1.07812 9.9873V16.9873C1.07813 17.5177 1.28884 18.0264 1.66391 18.4015C2.03898 18.7766 2.54769 18.9873 3.07812 18.9873H15.0781C15.6086 18.9873 16.1173 18.7766 16.4923 18.4015C16.8674 18.0264 17.0781 17.5177 17.0781 16.9873V9.9873C17.0781 9.45687 16.8674 8.94816 16.4923 8.57309C16.1173 8.19802 15.6086 7.9873 15.0781 7.9873H13.0781M5.07812 7.9873V4.9873C5.07812 3.92644 5.49955 2.90902 6.2497 2.15888C6.99984 1.40873 8.01726 0.987305 9.07812 0.987305C10.139 0.987305 11.1564 1.40873 11.9066 2.15888C12.6567 2.90902 13.0781 3.92644 13.0781 4.9873V7.9873M5.07812 7.9873H13.0781M9.07812 11.9873V14.9873" stroke="#8A8A8A" stroke-width="1.5" stroke-linecap="round" stroke-linejoin="round"/>
</svg>
