<svg width="21" height="20" viewBox="0 0 21 20" fill="none" xmlns="http://www.w3.org/2000/svg" strokeWidth="0">
<path d="M8.73127 5.76286C8.63863 5.85608 8.56508 5.96709 8.51488 6.08948C8.46468 6.21187 8.43884 6.34318 8.43884 6.47582C8.43884 6.60846 8.46468 6.73977 8.51488 6.86216C8.56508 6.98454 8.63863 7.09556 8.73127 7.18878L10.6313 9.12396H1.43127C0.881274 9.12396 0.431274 9.58229 0.431274 10.1425C0.431274 10.7027 0.881274 11.161 1.43127 11.161H10.6313L8.73127 13.0962C8.63863 13.1894 8.56508 13.3004 8.51488 13.4228C8.46468 13.5452 8.43884 13.6765 8.43884 13.8091C8.43884 13.9418 8.46468 14.0731 8.51488 14.1955C8.56508 14.3179 8.63863 14.4289 8.73127 14.5221C9.12127 14.9193 9.74127 14.9193 10.1313 14.5221L13.7213 10.8656C13.814 10.7714 13.8875 10.6595 13.9377 10.5363C13.9879 10.413 14.0137 10.281 14.0137 10.1476C14.0137 10.0142 13.9879 9.88209 13.9377 9.75888C13.8875 9.63567 13.814 9.52374 13.7213 9.42952L10.1313 5.76286C10.0398 5.6685 9.93075 5.59359 9.81059 5.54246C9.69043 5.49133 9.5615 5.465 9.43127 5.465C9.30105 5.465 9.17212 5.49133 9.05196 5.54246C8.9318 5.59359 8.8228 5.6685 8.73127 5.76286ZM18.4313 17.2721H11.4313C10.8813 17.2721 10.4313 17.7304 10.4313 18.2906C10.4313 18.8508 10.8813 19.3091 11.4313 19.3091H18.4313C19.5313 19.3091 20.4313 18.3925 20.4313 17.2721V3.01286C20.4313 1.89249 19.5313 0.97583 18.4313 0.97583H11.4313C10.8813 0.97583 10.4313 1.43416 10.4313 1.99435C10.4313 2.55453 10.8813 3.01286 11.4313 3.01286H18.4313V17.2721Z" fill="#FBFBFB"/>
</svg>
