<svg width="14" height="14" viewBox="0 0 14 14" fill="none" xmlns="http://www.w3.org/2000/svg">
<circle cx="6.69336" cy="7.16333" r="6.61322" fill="#F1F1F1"/>
<path d="M6.6932 3.46814C6.82103 3.46814 6.94363 3.51892 7.03402 3.60931C7.12441 3.6997 7.17519 3.82229 7.17519 3.95013V6.68138H9.90644C10.0343 6.68138 10.1569 6.73216 10.2473 6.82255C10.3376 6.91294 10.3884 7.03553 10.3884 7.16336C10.3884 7.29119 10.3376 7.41379 10.2473 7.50418C10.1569 7.59457 10.0343 7.64535 9.90644 7.64535H7.17519V10.3766C7.17519 10.5044 7.12441 10.627 7.03402 10.7174C6.94363 10.8078 6.82103 10.8586 6.6932 10.8586C6.56537 10.8586 6.44278 10.8078 6.35239 10.7174C6.262 10.627 6.21122 10.5044 6.21122 10.3766V7.64535H3.47996C3.35213 7.64535 3.22954 7.59457 3.13915 7.50418C3.04876 7.41379 2.99798 7.29119 2.99798 7.16336C2.99798 7.03553 3.04876 6.91294 3.13915 6.82255C3.22954 6.73216 3.35213 6.68138 3.47996 6.68138H6.21122V3.95013C6.21122 3.82229 6.262 3.6997 6.35239 3.60931C6.44278 3.51892 6.56537 3.46814 6.6932 3.46814Z" fill="#A6A7A8"/>
</svg>
