<svg width="23" height="23" viewBox="0 0 23 23" fill="none" xmlns="http://www.w3.org/2000/svg" strokeWidth="0">
<path d="M22.2605 20.7594L17.2307 15.7296C18.4417 14.1176 19.0954 12.1554 19.0932 10.1391C19.0932 4.98913 14.9032 0.799194 9.75322 0.799194C4.6032 0.799194 0.413269 4.98913 0.413269 10.1391C0.413269 15.2892 4.6032 19.4791 9.75322 19.4791C11.7694 19.4813 13.7316 18.8276 15.3437 17.6167L20.3735 22.6464C20.6281 22.874 20.9601 22.9955 21.3015 22.9859C21.6429 22.9764 21.9676 22.8365 22.2091 22.595C22.4506 22.3535 22.5904 22.0288 22.6 21.6874C22.6096 21.3461 22.4881 21.014 22.2605 20.7594ZM3.08183 10.1391C3.08183 8.81966 3.4731 7.52982 4.20616 6.43272C4.93922 5.33561 5.98115 4.48052 7.20019 3.97558C8.41922 3.47064 9.76062 3.33852 11.0547 3.59594C12.3489 3.85336 13.5376 4.48874 14.4706 5.42176C15.4036 6.35477 16.039 7.54349 16.2964 8.83762C16.5538 10.1317 16.4217 11.4731 15.9168 12.6922C15.4118 13.9112 14.5567 14.9531 13.4596 15.6862C12.3625 16.4193 11.0727 16.8105 9.75322 16.8105C7.9845 16.8084 6.28884 16.1049 5.03817 14.8542C3.78751 13.6035 3.08395 11.9079 3.08183 10.1391Z" fill="#F1F1F1"/>
</svg>
