<svg width="15" height="16" viewBox="0 0 15 16" fill="none" xmlns="http://www.w3.org/2000/svg" strokeWidth="0">
<path fill-rule="evenodd" clip-rule="evenodd" d="M5.21289 1.87778C5.21286 1.7101 5.26872 1.54737 5.37133 1.41624C5.47393 1.2851 5.61721 1.19332 5.7777 1.15593C6.84116 0.909276 7.94552 0.909782 9.00877 1.15741C9.1694 1.19466 9.31284 1.28637 9.41559 1.41752C9.51833 1.54867 9.5743 1.71148 9.5743 1.87926V3.24671C9.57431 3.37667 9.6079 3.50434 9.6717 3.61689C9.7355 3.72943 9.82726 3.82289 9.93776 3.88787C10.0483 3.95285 10.1736 3.98706 10.3012 3.98705C10.4288 3.98705 10.5542 3.95284 10.6647 3.88787L11.8284 3.20303C11.9712 3.11909 12.1377 3.08707 12.3007 3.11223C12.4637 3.13739 12.6135 3.21822 12.7254 3.34148C13.4652 4.15676 14.0168 5.13011 14.3399 6.19039C14.3887 6.35074 14.3825 6.52322 14.3224 6.67953C14.2623 6.83585 14.1519 6.96673 14.0091 7.05069L12.8454 7.73478C12.7349 7.79977 12.6431 7.89323 12.5793 8.00577C12.5155 8.11832 12.4819 8.24598 12.4819 8.37594C12.4819 8.50589 12.5155 8.63356 12.5793 8.7461C12.6431 8.85865 12.7349 8.95211 12.8454 9.01709L14.0084 9.70044C14.151 9.78438 14.2613 9.91513 14.3214 10.0713C14.3815 10.2274 14.3878 10.3998 14.3391 10.56C14.0183 11.6218 13.4667 12.5963 12.7254 13.4111C12.6134 13.5343 12.4636 13.615 12.3006 13.64C12.1376 13.665 11.9711 13.6329 11.8284 13.5488L10.6647 12.864C10.5542 12.799 10.4288 12.7648 10.3012 12.7648C10.1736 12.7648 10.0483 12.799 9.93776 12.864C9.82726 12.929 9.7355 13.0224 9.6717 13.135C9.6079 13.2475 9.57431 13.3752 9.5743 13.5052V14.8748C9.57413 15.0425 9.51809 15.2051 9.41536 15.3361C9.31262 15.4671 9.16928 15.5587 9.00877 15.5959C7.9453 15.8426 6.84095 15.8421 5.7777 15.5945C5.61721 15.5571 5.47393 15.4653 5.37133 15.3342C5.26872 15.203 5.21286 15.0403 5.21289 14.8726V13.5052C5.21289 13.3752 5.1793 13.2475 5.1155 13.135C5.0517 13.0224 4.95994 12.929 4.84943 12.864C4.73893 12.799 4.61358 12.7648 4.48599 12.7648C4.35839 12.7648 4.23304 12.799 4.12254 12.864L2.95877 13.5488C2.816 13.6328 2.64945 13.6648 2.48646 13.6396C2.32347 13.6145 2.17372 13.5336 2.06177 13.4104C1.69298 13.0041 1.36992 12.5571 1.09863 12.0777C0.826723 11.5986 0.608264 11.09 0.447324 10.5615C0.398525 10.4011 0.404678 10.2287 0.464774 10.0723C0.52487 9.91602 0.63534 9.78515 0.778064 9.70118L1.94111 9.01709C2.0516 8.95211 2.14336 8.85865 2.20715 8.7461C2.27094 8.63356 2.30453 8.50589 2.30453 8.37594C2.30453 8.24598 2.27094 8.11832 2.20715 8.00577C2.14336 7.89323 2.0516 7.79977 1.94111 7.73478L0.779518 7.05143C0.636816 6.96761 0.5263 6.83691 0.466077 6.68074C0.405855 6.52457 0.399499 6.3522 0.448051 6.19187C0.769005 5.13038 1.32056 4.15615 2.06177 3.34148C2.17367 3.2184 2.32329 3.13767 2.48612 3.11252C2.64895 3.08737 2.81535 3.11928 2.95804 3.20303L4.12254 3.88787C4.23304 3.95284 4.35839 3.98705 4.48599 3.98705C4.61358 3.98706 4.73893 3.95285 4.84943 3.88787C4.95994 3.82289 5.0517 3.72943 5.1155 3.61689C5.1793 3.50434 5.21289 3.37667 5.21289 3.24671V1.87704V1.87778ZM7.3936 10.597C7.97196 10.597 8.52663 10.363 8.93559 9.94648C9.34455 9.52995 9.5743 8.96501 9.5743 8.37594C9.5743 7.78687 9.34455 7.22193 8.93559 6.80539C8.52663 6.38886 7.97196 6.15485 7.3936 6.15485C6.81524 6.15485 6.26057 6.38886 5.85161 6.80539C5.44265 7.22193 5.21289 7.78687 5.21289 8.37594C5.21289 8.96501 5.44265 9.52995 5.85161 9.94648C6.26057 10.363 6.81524 10.597 7.3936 10.597Z" fill="#FBFBFB"/>
</svg>
