<svg width="20" height="16" viewBox="0 0 20 16" fill="none" xmlns="http://www.w3.org/2000/svg" strokeWidth="0">
<path d="M4.95812 0.924411C5.13412 0.748459 5.37281 0.649615 5.62168 0.649615C5.87055 0.649615 6.10923 0.748459 6.28524 0.924411L10.0395 4.67864C10.2104 4.85565 10.305 5.09273 10.3029 5.33882C10.3008 5.5849 10.202 5.82031 10.028 5.99432C9.85402 6.16834 9.61861 6.26705 9.37253 6.26918C9.12644 6.27132 8.88936 6.17672 8.71235 6.00576L6.56024 3.85365V14.7278C6.56024 14.9767 6.46135 15.2154 6.28534 15.3914C6.10932 15.5674 5.8706 15.6663 5.62168 15.6663C5.37276 15.6663 5.13403 15.5674 4.95802 15.3914C4.78201 15.2154 4.68312 14.9767 4.68312 14.7278V3.85365L2.53101 6.00576C2.354 6.17672 2.11692 6.27132 1.87083 6.26918C1.62474 6.26705 1.38934 6.16834 1.21533 5.99432C1.04131 5.82031 0.942604 5.5849 0.940465 5.33882C0.938327 5.09273 1.03293 4.85565 1.20389 4.67864L4.95812 0.924411ZM14.0687 12.4621V1.58797C14.0687 1.33905 14.1676 1.10032 14.3436 0.924311C14.5196 0.748298 14.7583 0.649414 15.0072 0.649414C15.2562 0.649414 15.4949 0.748298 15.6709 0.924311C15.8469 1.10032 15.9458 1.33905 15.9458 1.58797V12.4621L18.0979 10.31C18.2749 10.139 18.512 10.0444 18.7581 10.0465C19.0042 10.0487 19.2396 10.1474 19.4136 10.3214C19.5876 10.4954 19.6863 10.7308 19.6885 10.9769C19.6906 11.223 19.596 11.4601 19.425 11.6371L15.6708 15.3913C15.4948 15.5673 15.2561 15.6661 15.0072 15.6661C14.7584 15.6661 14.5197 15.5673 14.3437 15.3913L10.5895 11.6371C10.4185 11.4601 10.3239 11.223 10.326 10.9769C10.3282 10.7308 10.4269 10.4954 10.6009 10.3214C10.7749 10.1474 11.0103 10.0487 11.2564 10.0465C11.5025 10.0444 11.7396 10.139 11.9166 10.31L14.0687 12.4621Z" fill="#404040"/>
</svg>
