<svg width="24" height="30" viewBox="0 0 24 30" fill="none" xmlns="http://www.w3.org/2000/svg">
<path d="M17.4814 11.1718H20.0753C20.7632 11.1718 21.4229 11.445 21.9094 11.9315C22.3958 12.4179 22.6691 13.0777 22.6691 13.7656V26.216C22.6691 26.904 22.3958 27.5637 21.9094 28.0502C21.4229 28.5366 20.7632 28.8099 20.0753 28.8099H4.51221C3.82428 28.8099 3.16452 28.5366 2.67808 28.0502C2.19164 27.5637 1.91837 26.904 1.91837 26.216V13.7656C1.91837 13.0777 2.19164 12.4179 2.67808 11.9315C3.16452 11.445 3.82428 11.1718 4.51221 11.1718H7.10605M17.4814 7.02161L12.2937 1.83392M12.2937 1.83392L7.10605 7.02161M12.2937 1.83392V19.5369" stroke="#D6D8D9" stroke-width="2" stroke-linecap="round" stroke-linejoin="round"/>
</svg>
