<svg width="15" height="16" viewBox="0 0 15 16" fill="none" xmlns="http://www.w3.org/2000/svg" strokeWidth="0">
<path d="M7.3936 15.0404C6.40003 15.0404 5.46099 14.8459 4.57647 14.4569C3.69196 14.068 2.9194 13.5373 2.2588 12.865C1.59868 12.1926 1.07766 11.406 0.695746 10.5051C0.313829 9.60421 0.123112 8.64778 0.123597 7.63582C0.123597 6.61151 0.314556 5.65187 0.696473 4.7569C1.07839 3.86193 1.59941 3.07852 2.25952 2.40668C2.91964 1.73384 3.69171 1.20318 4.57574 0.814685C5.45978 0.426189 6.39906 0.231695 7.3936 0.231201C8.39928 0.231201 9.34147 0.425696 10.2202 0.814685C11.0989 1.20367 11.868 1.73434 12.5277 2.40668C13.1883 3.07902 13.7093 3.86267 14.0907 4.75764C14.4722 5.65261 14.6631 6.612 14.6636 7.63582C14.6636 8.64778 14.4726 9.60421 14.0907 10.5051C13.7088 11.406 13.1878 12.1929 12.5277 12.8657C11.8676 13.538 11.0981 14.0687 10.2194 14.4577C9.34074 14.8467 8.3988 15.0409 7.3936 15.0404ZM7.3936 13.5225C7.70863 13.0782 7.98125 12.6154 8.21147 12.1341C8.44169 11.6528 8.6295 11.1407 8.7749 10.5977H6.0123C6.1577 11.1407 6.3455 11.6528 6.57572 12.1341C6.80594 12.6154 7.07856 13.0782 7.3936 13.5225ZM5.5034 13.2263C5.2853 12.819 5.09434 12.3962 4.93052 11.9579C4.7667 11.5195 4.63051 11.0661 4.52195 10.5977H2.3773C2.72868 11.2147 3.16803 11.7515 3.69535 12.2082C4.22267 12.6648 4.82535 13.0042 5.5034 13.2263ZM9.2838 13.2263C9.96233 13.0042 10.5653 12.6648 11.0926 12.2082C11.6199 11.7515 12.059 11.2147 12.4099 10.5977H10.2652C10.1562 11.0666 10.02 11.5203 9.85667 11.9586C9.69334 12.397 9.50238 12.8195 9.2838 13.2263ZM1.75935 9.11674H4.23115C4.1948 8.86992 4.16741 8.62606 4.149 8.38516C4.13058 8.14427 4.12161 7.89448 4.1221 7.63582C4.1221 7.37665 4.13131 7.12687 4.14972 6.88647C4.16814 6.64607 4.19528 6.40221 4.23115 6.15489H1.75935C1.69876 6.40171 1.6532 6.64557 1.62267 6.88647C1.59214 7.12737 1.57711 7.37715 1.5776 7.63582C1.5776 7.89498 1.59286 8.14476 1.6234 8.38516C1.65393 8.62557 1.69925 8.86942 1.75935 9.11674ZM5.68515 9.11674H9.10205C9.1384 8.86992 9.16578 8.62606 9.1842 8.38516C9.20261 8.14427 9.21158 7.89448 9.2111 7.63582C9.2111 7.37665 9.20189 7.12687 9.18347 6.88647C9.16505 6.64607 9.13791 6.40221 9.10205 6.15489H5.68515C5.6488 6.40171 5.62141 6.64557 5.603 6.88647C5.58458 7.12737 5.57561 7.37715 5.5761 7.63582C5.5761 7.89498 5.58531 8.14476 5.60372 8.38516C5.62214 8.62557 5.64928 8.86942 5.68515 9.11674ZM10.556 9.11674H13.0278C13.0884 8.86992 13.134 8.62606 13.1645 8.38516C13.1951 8.14427 13.2101 7.89448 13.2096 7.63582C13.2096 7.37665 13.1943 7.12687 13.1638 6.88647C13.1333 6.64607 13.0879 6.40221 13.0278 6.15489H10.556C10.5924 6.40171 10.6198 6.64557 10.6382 6.88647C10.6566 7.12737 10.6656 7.37715 10.6651 7.63582C10.6651 7.89498 10.6559 8.14476 10.6375 8.38516C10.6191 8.62557 10.5919 8.86942 10.556 9.11674ZM10.2652 4.67397H12.4099C12.0585 4.05692 11.6194 3.52008 11.0926 3.06347C10.5657 2.60685 9.96281 2.26747 9.2838 2.04533C9.5019 2.45259 9.69285 2.87539 9.85667 3.31374C10.0205 3.7521 10.1567 4.2055 10.2652 4.67397ZM6.0123 4.67397H8.7749C8.6295 4.13096 8.44169 3.61881 8.21147 3.13751C7.98125 2.65621 7.70863 2.19342 7.3936 1.74915C7.07856 2.19342 6.80594 2.65621 6.57572 3.13751C6.3455 3.61881 6.1577 4.13096 6.0123 4.67397ZM2.3773 4.67397H4.52195C4.631 4.20501 4.76743 3.75135 4.93125 3.313C5.09507 2.87465 5.28578 2.45209 5.5034 2.04533C4.82486 2.26747 4.22194 2.60685 3.69462 3.06347C3.1673 3.52008 2.7282 4.05692 2.3773 4.67397Z" fill="#FBFBFB"/>
</svg>
